<svg width="30" height="24" viewBox="0 0 30 24" fill="none" xmlns="http://www.w3.org/2000/svg">
<g clip-path="url(#clip0_740_83)">
<path d="M0 0.75H30V23.25H0V0.75Z" fill="#012169"/>
<path d="M3.51562 0.75L14.9531 9.23438L26.3438 0.75H30V3.65625L18.75 12.0469L30 20.3906V23.25H26.25L15 14.8594L3.79688 23.25H0V20.4375L11.2031 12.0938L0 3.75V0.75H3.51562Z" fill="white"/>
<path d="M19.875 13.9219L30 21.375V23.25L17.2969 13.9219H19.875ZM11.25 14.8594L11.5312 16.5L2.53125 23.25H0L11.25 14.8594ZM30 0.75V0.890625L18.3281 9.70312L18.4219 7.64062L27.6562 0.75H30ZM0 0.75L11.2031 9H8.39062L0 2.71875V0.75Z" fill="#C8102E"/>
<path d="M11.2969 0.75V23.25H18.7969V0.75H11.2969ZM0 8.25V15.75H30V8.25H0Z" fill="white"/>
<path d="M0 9.79688V14.2969H30V9.79688H0ZM12.7969 0.75V23.25H17.2969V0.75H12.7969Z" fill="#C8102E"/>
</g>
<defs>
<clipPath id="clip0_740_83">
<rect y="0.75" width="30" height="22.5" rx="4" fill="white"/>
</clipPath>
</defs>
</svg>
