<svg width="36" height="36" viewBox="0 0 36 36" fill="white" xmlns="http://www.w3.org/2000/svg">
<circle cx="18" cy="18" r="17.5" stroke="white" stroke-linejoin="bevel"/>
<path d="M22.6 11.82C21.9164 11.0396 21.5397 10.0374 21.54 9H18.45V21.4C18.4261 22.071 18.1428 22.7066 17.6597 23.1729C17.1766 23.6393 16.5314 23.8999 15.86 23.9C14.44 23.9 13.26 22.74 13.26 21.3C13.26 19.58 14.92 18.29 16.63 18.82V15.66C13.18 15.2 10.16 17.88 10.16 21.3C10.16 24.63 12.92 27 15.85 27C18.99 27 21.54 24.45 21.54 21.3V15.01C22.793 15.9099 24.2973 16.3926 25.84 16.39V13.3C25.84 13.3 23.96 13.39 22.6 11.82Z" fill="#385E55"/>
</svg>
