<svg width="194" height="38" viewBox="0 0 194 38" fill="none" xmlns="http://www.w3.org/2000/svg">
<path fill-rule="evenodd" clip-rule="evenodd" d="M15.5557 1.68932C17.4543 2.53646 18.0707 3.45358 18.0707 5.43149C18.0707 6.97055 17.9426 7.27524 16.9101 8.19542C16.104 8.91383 15.8932 9.27727 16.2201 9.38596C16.4786 9.4719 17.2336 10.0388 17.8977 10.6458C19.0242 11.6754 19.1141 11.9097 19.2408 14.1495C19.5371 19.3771 17.0609 20.6573 6.65525 20.6573H1.25284V13.0887C1.25284 5.85949 1.04306 3.82689 0.05923 1.51609C-0.197882 0.912833 0.0892011 0.892791 7.07753 1.02255C12.7285 1.12717 14.6315 1.27696 15.5557 1.68932ZM36.7867 1.61357C37.5069 1.8398 38.6447 2.52662 39.3156 3.13973C40.4033 4.13395 40.5511 4.47532 40.6832 6.29631C40.9199 9.55717 39.5468 11.6665 36.7101 12.3996L35.5835 12.6906L36.7952 13.5507C37.4616 14.0235 39.0213 15.5962 40.2613 17.0459C41.5012 18.4953 42.8477 19.8065 43.2533 19.96C43.8646 20.191 43.7106 20.2816 42.3549 20.4895C38.7789 21.0371 37.1194 20.1726 35.4681 16.9019C34.173 14.3374 33.1493 13.3659 31.3931 13.0375C29.5712 12.6964 27.2531 13.8367 26.6006 15.3944C26.32 16.0646 26.1133 16.7969 26.1416 17.0218C26.1702 17.2467 26.1753 18.1645 26.1528 19.0615L26.1126 20.693L24.3248 20.5901L22.5369 20.4875L22.3666 11.64C22.2158 3.79937 22.1252 2.68422 21.5701 1.84013L20.9438 0.887695L28.2107 1.04496C32.4917 1.13769 36.0157 1.37139 36.7867 1.61357ZM64.3269 1.55074C64.3947 1.8775 64.3896 2.48178 64.3153 2.89346C64.1845 3.61832 64.1532 3.62376 63.2964 3.0633C62.5891 2.60032 61.406 2.46173 57.3736 2.36866L52.3346 2.25283V5.29427V8.33604L54.6333 8.59249C55.8974 8.73311 57.6205 8.87408 58.462 8.90533C59.6407 8.94915 60.0193 9.10337 60.1106 9.57687C60.2206 10.1465 59.9451 10.1832 56.3673 10.0748L52.5049 9.95764L52.4099 14.6655L52.3148 19.373L57.3638 19.2504C61.4779 19.1502 62.583 19.016 63.3332 18.5259C64.3082 17.8886 64.3293 17.8978 64.3293 18.959C64.3293 20.764 64.8248 20.6573 56.447 20.6573H48.6404L48.5246 12.0806C48.4282 4.94407 48.3124 3.28986 47.835 2.23008L47.2612 0.956308H55.7326C63.5263 0.956308 64.2135 1.00386 64.3269 1.55074ZM75.712 8.61185L79.4509 16.2677L83.159 8.61185L86.8669 0.956308H88.1606H89.454V10.8068V20.6573H87.581H85.708L85.7073 13.4393L85.707 6.22124L82.2399 13.4393C79.5663 19.0058 78.6284 20.6573 78.1404 20.6573C77.6555 20.6573 76.6567 18.9376 73.8605 13.2885L70.2132 5.91926L70.1213 13.3119C70.0368 20.1098 69.982 20.6954 69.4402 20.5914C68.9069 20.4889 68.8456 19.8194 68.7928 13.5195C68.7206 4.93354 68.5548 2.86187 67.8529 1.79326L67.3029 0.956308H69.638H71.9732L75.712 8.61185ZM97.9676 10.8068V20.6573H96.1253H94.2826L94.1672 12.2504C94.0602 4.48958 93.9959 3.73245 93.3277 2.39992L92.6044 0.956308H95.2859H97.9676V10.8068ZM118.06 2.32281V3.68931L117.139 3.08775C116.389 2.5976 115.285 2.46344 111.18 2.36357L106.141 2.24095V5.41994V8.59895L107.758 8.62884C111.634 8.70017 113.801 9.05139 113.919 9.62748C114.023 10.1322 113.629 10.1794 110.173 10.0748L106.311 9.95764L106.216 14.6601L106.121 19.3628L110.984 19.2456C114.683 19.1563 116.111 18.9926 116.953 18.5602L118.06 17.9919V19.3248V20.6573H110.257H102.455L102.34 12.0806C102.241 4.72939 102.139 3.33878 101.629 2.34761C101.301 1.71174 101.033 1.13871 101.033 1.07384C101.033 1.0093 104.864 0.956308 109.546 0.956308H118.06V2.32281ZM136.907 1.60746C137.627 1.83708 138.765 2.52662 139.436 3.13973C140.52 4.13055 140.672 4.47871 140.801 6.26777C141.044 9.60471 139.983 11.278 136.972 12.3102L135.799 12.7127L137.401 13.9936C138.282 14.6981 139.693 16.1662 140.536 17.2562C141.379 18.3459 142.528 19.4627 143.09 19.7385L144.112 20.2395L142.813 20.4902C140.99 20.8424 138.73 20.5245 137.693 19.7694C137.208 19.4172 136.282 18.1342 135.634 16.9185C134.014 13.8792 133.085 13.0714 131.211 13.0714C127.738 13.0714 126.573 14.3333 126.573 18.0979V20.6573H124.7H122.827L122.821 13.9488C122.813 6.72803 122.44 2.98211 121.599 1.70257L121.07 0.897201L128.334 1.0436C132.726 1.13225 136.116 1.35508 136.907 1.60746ZM164.374 2.32281V3.68931L163.453 3.08708C162.702 2.59523 161.609 2.46343 157.494 2.36866L152.455 2.25283V5.42572V8.59895L154.072 8.62884C157.949 8.70017 160.115 9.05139 160.234 9.62748C160.337 10.1322 159.943 10.1794 156.488 10.0748L152.625 9.95764L152.53 14.6601L152.435 19.3628L157.298 19.2456C160.997 19.1563 162.425 18.9926 163.267 18.5602L164.374 17.9919V19.3248V20.6573H156.571H148.769L148.654 12.0806C148.555 4.72939 148.453 3.33878 147.943 2.34761C147.615 1.71174 147.347 1.13871 147.347 1.07384C147.347 1.0093 151.178 0.956308 155.86 0.956308H164.374V2.32281ZM181.322 1.48212C182.016 1.77118 182.919 2.32179 183.328 2.70528L184.073 3.40297L185.614 2.34523C189.531 -0.342944 193.996 1.39211 194 5.60473C194.002 7.40567 193.516 8.68861 192.386 9.87033L191.495 10.8024L192.197 11.5687C194.82 14.4294 194.515 18.6533 191.577 20.1689C189.848 21.0605 187.182 20.6977 185.488 19.3397L184.126 18.2477L182.763 19.3397C180.196 21.3971 176.436 21.0035 174.917 18.5177C173.831 16.7419 174.021 14.6115 175.453 12.4882C176.646 10.7202 176.651 10.6988 176.004 9.9916C173.419 7.16688 173.81 3.02356 176.804 1.51473C178.139 0.841503 179.757 0.829951 181.322 1.48212ZM176.741 2.3099C175.88 2.66452 175.271 3.65297 175.271 4.69577C175.271 5.10032 175.998 6.18251 176.911 7.13767C178.775 9.0857 178.914 9.06973 181.034 6.65602L182.2 5.32891L180.694 3.84148C179.09 2.25759 177.945 1.81432 176.741 2.3099ZM189.739 2.3578C189.174 2.50895 188.108 3.24978 187.37 4.00419L186.028 5.37545L187.703 7.07212C188.625 8.0052 189.556 8.76878 189.774 8.76878C189.991 8.76878 190.801 8.08434 191.574 7.24773C192.641 6.09352 192.98 5.4512 192.98 4.58299C192.98 2.82179 191.584 1.86358 189.739 2.3578ZM4.99884 5.91791C4.99884 9.21851 5.0489 9.49976 5.59479 9.26946C5.9224 9.13121 7.49333 8.90635 9.08538 8.7698C10.6774 8.63325 12.3863 8.3571 12.8831 8.15669C14.8256 7.37205 14.89 3.57485 12.9758 2.7046C12.5041 2.49027 10.5164 2.315 8.55856 2.315H4.99884V5.91791ZM26.3398 2.54156C26.0718 2.80854 26.0282 13.1845 26.2948 13.1845C26.3953 13.1845 26.8513 12.94 27.3086 12.6411C27.8045 12.317 29.3451 11.9981 31.1275 11.8503C34.3971 11.5796 35.2372 11.265 36.3024 9.91381C36.8299 9.24499 37.0087 8.53169 37.005 7.10948C36.9947 3.25555 35.6557 2.31636 30.1709 2.31568C28.1886 2.31534 26.4644 2.4169 26.3398 2.54156ZM126.573 7.75758V13.2002L127.417 12.6492C127.925 12.317 129.447 11.9987 131.248 11.8482C135.966 11.4539 137.135 10.4835 137.125 6.96954C137.115 3.25555 135.724 2.31636 130.234 2.31568L126.573 2.315V7.75758ZM182.253 9.10845L180.575 10.8068L182.253 12.5052C183.175 13.4393 184.095 14.2035 184.296 14.2035C184.497 14.2035 185.384 13.4722 186.267 12.5786L187.872 10.9532L186.073 9.18182C185.084 8.2073 184.197 7.41009 184.102 7.41009C184.007 7.41009 183.175 8.17435 182.253 9.10845ZM6.49723 10.2728C5.91626 10.5249 5.34176 10.9899 5.22019 11.3065C5.09828 11.6227 4.99884 13.5503 4.99884 15.5901V19.2986L8.6597 19.298C14.1632 19.2973 15.5404 18.3608 15.5506 14.6112C15.5574 12.2243 14.89 11.0225 13.1781 10.3394C11.5084 9.673 7.96022 9.63766 6.49723 10.2728ZM176.851 14.5286C175.032 16.4678 174.845 17.5452 176.107 18.8044C177.015 19.7103 177.962 19.8526 179.125 19.2579C180.139 18.7389 182.082 16.8727 182.082 16.4169C182.082 16.0415 178.99 12.8449 178.626 12.8449C178.518 12.8449 177.719 13.6027 176.851 14.5286ZM187.718 14.5259L186.059 16.2069L187.22 17.5402C189.172 19.7789 190.933 20.2392 192.239 18.8523C193.417 17.6013 193.192 16.4389 191.401 14.5286C190.532 13.6027 189.722 12.8449 189.6 12.8449C189.478 12.8449 188.631 13.6013 187.718 14.5259ZM65.4681 32.3937C65.9278 33.4311 66.425 34.2055 66.5724 34.1145C66.7199 34.0234 67.2042 33.1749 67.6486 32.2286C68.093 31.2823 68.6379 30.5078 68.8596 30.5078C69.0809 30.5078 69.731 31.3791 70.3038 32.4443L71.3455 34.3804L72.2977 32.4443C72.9277 31.1627 73.4562 30.5078 73.8598 30.5078C74.1956 30.5078 74.47 30.5632 74.47 30.6308C74.47 31.0527 71.6639 36.6219 71.4514 36.6219C71.3074 36.6219 70.7503 35.7048 70.2132 34.5839C69.6762 33.463 69.1201 32.5459 68.9777 32.5459C68.8354 32.5459 68.3062 33.463 67.8022 34.5839C67.2978 35.7048 66.6903 36.6219 66.4526 36.6219C66.1025 36.6219 64.9481 34.2721 63.686 30.9919C63.5709 30.6926 63.7156 30.5078 64.0657 30.5078C64.425 30.5078 64.9372 31.1967 65.4681 32.3937ZM80.5998 31.0173C80.5998 31.4022 80.1837 31.5269 78.8971 31.5269C77.3078 31.5269 77.1944 31.5836 77.1944 32.376C77.1944 33.1403 77.3306 33.2252 78.5566 33.2252C79.5404 33.2252 79.9188 33.3669 79.9188 33.7347C79.9188 34.1026 79.5404 34.2442 78.5566 34.2442C77.3306 34.2442 77.1944 34.3292 77.1944 35.0934C77.1944 35.8845 77.3092 35.9426 78.877 35.9426C80.6853 35.9426 81.4808 36.4739 80.1656 36.803C79.724 36.9134 78.6066 36.9562 77.6827 36.8978L76.0025 36.7918L75.9044 33.6498L75.8067 30.5078H78.2031C80.1064 30.5078 80.5998 30.6128 80.5998 31.0173ZM83.8984 33.1403L83.835 35.7728L85.4744 35.877C87.9049 36.0319 87.3682 36.7918 84.8284 36.7918H82.8134L82.7153 33.6498C82.624 30.715 82.6618 30.5078 83.2898 30.5078C83.9065 30.5078 83.9566 30.7246 83.8984 33.1403ZM89.8654 33.1403L89.9648 35.7728L91.5824 35.8764C92.7433 35.9508 93.2 36.123 93.2 36.4871C93.2 36.8934 92.7774 36.9738 91.0716 36.893L88.9432 36.7918L88.8451 33.6498C88.7641 31.0442 88.8342 30.5078 89.2565 30.5078C89.6563 30.5078 89.7874 31.0744 89.8654 33.1403ZM97.2273 32.376C98.1689 33.4035 99.0271 34.2442 99.1344 34.2442C99.242 34.2442 99.3298 33.4035 99.3298 32.376C99.3298 30.9419 99.4483 30.5078 99.8406 30.5078C100.26 30.5078 100.351 31.1012 100.351 33.8098V37.1118L98.1379 34.9236L95.9244 32.7354V34.8485C95.9244 36.5003 95.813 36.9616 95.4136 36.9616C94.9954 36.9616 94.9027 36.3767 94.9027 33.7347C94.9027 31.9599 95.0407 30.5078 95.2092 30.5078C95.3775 30.5078 96.2857 31.3485 97.2273 32.376ZM107.503 31.0173C107.503 31.407 107.073 31.5269 105.677 31.5269C103.913 31.5269 103.857 31.5557 104.014 32.376C104.155 33.1118 104.357 33.2252 105.528 33.2252C107.27 33.2252 107.118 34.0306 105.348 34.1797C104.278 34.2701 104.097 34.4049 104.097 35.1138C104.097 35.8838 104.22 35.9426 105.828 35.9426C107.062 35.9426 107.519 36.0645 107.418 36.3672C107.324 36.6481 106.536 36.7918 105.091 36.7918H102.906L102.807 33.6498L102.71 30.5078H105.106C107.009 30.5078 107.503 30.6128 107.503 31.0173ZM112.753 30.714C113.862 31.1383 113.307 31.7558 111.845 31.7259C109.884 31.6862 109.906 32.5153 111.885 33.2446C113.663 33.8998 114.201 34.6644 113.682 35.8006C113.248 36.75 112.042 37.1219 110.395 36.8139C109.509 36.6481 109.206 36.4185 109.206 35.9154C109.206 35.3393 109.309 35.2945 109.903 35.6118C110.882 36.1345 112.412 35.8947 112.544 35.1984C112.623 34.7819 112.266 34.5082 111.247 34.2035C109.988 33.8271 108.865 32.8499 108.865 32.1304C108.865 31.9854 109.172 31.5608 109.546 31.1872C110.214 30.5214 111.684 30.3047 112.753 30.714ZM119.348 31.2174C119.43 31.6464 119.151 31.7514 117.989 31.7269C116.071 31.6872 116.017 32.5017 117.89 33.2157C118.639 33.501 119.443 33.8584 119.678 34.0095C120.363 34.4518 120.17 35.857 119.346 36.4328C118.055 37.3346 115.335 36.9969 115.335 35.9348C115.335 35.3998 115.475 35.3696 116.497 35.6824C117.137 35.8781 117.903 35.945 118.2 35.8312C119.154 35.466 118.779 34.6488 117.464 34.2262C116.762 34.0007 115.995 33.6644 115.761 33.479C115.128 32.9779 115.239 31.2786 115.931 30.8659C116.842 30.3237 119.225 30.569 119.348 31.2174ZM129.44 30.714C129.736 30.8275 129.979 31.1349 129.979 31.3974C129.979 31.7636 129.663 31.8241 128.622 31.6583C126.723 31.3553 125.552 32.1468 125.552 33.7337C125.552 34.6953 125.737 35.0017 126.583 35.4378C127.285 35.8003 128.005 35.8968 128.84 35.7405C129.802 35.5605 130.033 35.6124 129.91 35.9817C129.637 36.7993 128.099 37.1179 126.594 36.6681C123.746 35.8173 123.358 31.9137 126.014 30.8448C126.884 30.4946 128.687 30.426 129.44 30.714ZM136.449 31.0173C136.449 31.4022 136.033 31.5269 134.747 31.5269C133.157 31.5269 133.044 31.5836 133.044 32.376C133.044 33.1434 133.178 33.2252 134.434 33.2252C136.209 33.2252 136.091 34.0285 134.295 34.1797C133.233 34.2694 133.044 34.4076 133.044 35.0961C133.044 35.8349 133.203 35.9161 134.832 36.0099C137.418 36.1583 136.867 36.7918 134.151 36.7918H131.852L131.782 33.6498L131.712 30.5078H134.08C135.959 30.5078 136.449 30.6131 136.449 31.0173ZM140.817 32.376C141.759 33.4035 142.617 34.2442 142.724 34.2442C142.832 34.2442 142.92 33.4035 142.92 32.376C142.92 30.9419 143.038 30.5078 143.43 30.5078C143.724 30.5078 143.954 30.8322 143.971 31.2721C143.987 31.6923 144.038 32.9864 144.083 34.1471C144.129 35.3081 144.066 36.4209 143.943 36.6199C143.812 36.8309 142.969 36.1912 141.919 35.0843C140.93 34.0408 140.036 33.2707 139.933 33.373C139.831 33.4756 139.733 34.2867 139.715 35.1756C139.693 36.372 139.552 36.7918 139.174 36.7918C138.763 36.7918 138.643 36.1729 138.565 33.6498C138.509 31.8526 138.604 30.5078 138.786 30.5078C138.962 30.5078 139.875 31.3485 140.817 32.376ZM151.093 31.0173C151.093 31.3733 150.733 31.5269 149.901 31.5269H148.709V34.2724C148.709 36.3176 148.6 36.9823 148.283 36.8777C148.004 36.7857 147.823 35.8397 147.758 34.1321L147.659 31.5269H146.651C145.983 31.5269 145.644 31.3553 145.644 31.0173C145.644 30.607 146.174 30.5078 148.368 30.5078C150.563 30.5078 151.093 30.607 151.093 31.0173ZM157.222 31.0173C157.222 31.4022 156.806 31.5269 155.52 31.5269C153.93 31.5269 153.817 31.5836 153.817 32.376C153.817 33.1434 153.951 33.2252 155.207 33.2252C156.982 33.2252 156.864 34.0285 155.068 34.1797C153.998 34.2701 153.817 34.4049 153.817 35.1138C153.817 35.8838 153.94 35.9426 155.548 35.9426C156.782 35.9426 157.238 36.0645 157.137 36.3672C157.043 36.6481 156.256 36.7918 154.81 36.7918H152.625L152.527 33.6498L152.429 30.5078H154.826C156.729 30.5078 157.222 30.6128 157.222 31.0173ZM163.617 31.0367C164.519 31.6671 164.594 32.7592 163.795 33.64C163.249 34.2415 163.252 34.3458 163.85 35.4521C164.198 36.0978 164.404 36.7052 164.307 36.802C163.919 37.1892 163.092 36.5272 162.551 35.3954C162.112 34.4755 161.803 34.2235 161.218 34.3064C160.643 34.3879 160.416 34.6967 160.287 35.5761C160.194 36.215 159.926 36.801 159.691 36.8781C159.371 36.9837 159.266 36.2157 159.266 33.7629V30.5078H161.063C162.139 30.5078 163.164 30.7201 163.617 31.0367ZM160.35 32.461C160.448 33.3084 160.568 33.3842 161.65 33.2772C163.824 33.0622 163.618 31.5269 161.415 31.5269C160.336 31.5269 160.251 31.6019 160.35 32.461Z" fill="white"/>
</svg>
