<svg xmlns="http://www.w3.org/2000/svg" width="147" height="54" viewBox="0 0 147 54" fill="none">
<path fill-rule="evenodd" clip-rule="evenodd" d="M18.4239 17.0372C19.6962 17.6048 20.1092 18.2194 20.1092 19.5448C20.1092 20.5761 20.0234 20.7803 19.3315 21.3969C18.7913 21.8783 18.6501 22.1219 18.8692 22.1947C19.0424 22.2523 19.5483 22.6322 19.9933 23.0389C20.7482 23.7288 20.8084 23.8859 20.8933 25.3868C21.0918 28.8898 19.4326 29.7477 12.4597 29.7477H8.83953V24.676C8.83953 19.8316 8.69896 18.4696 8.03969 16.9211C7.8674 16.5168 8.05977 16.5034 12.7427 16.5904C16.5294 16.6605 17.8046 16.7608 18.4239 17.0372ZM32.6509 16.9864C33.1335 17.138 33.8959 17.5982 34.3455 18.0091C35.0744 18.6753 35.1734 18.9041 35.2619 20.1243C35.4205 22.3094 34.5004 23.7229 32.5995 24.2141L31.8446 24.4092L32.6566 24.9855C33.1032 25.3024 34.1483 26.3562 34.9792 27.3277C35.8101 28.2989 36.7124 29.1775 36.9842 29.2804C37.3938 29.4352 37.2906 29.4959 36.3822 29.6352C33.9858 30.0022 32.8738 29.4229 31.7673 27.2312C30.8994 25.5127 30.2135 24.8617 29.0366 24.6416C27.8158 24.4131 26.2624 25.1772 25.8252 26.221C25.6371 26.6701 25.4986 27.1608 25.5176 27.3115C25.5367 27.4622 25.5401 28.0772 25.5251 28.6784L25.4982 29.7716L24.3001 29.7026L23.1021 29.6339L22.988 23.7052C22.8869 18.4511 22.8262 17.7039 22.4542 17.1382L22.0345 16.5L26.9041 16.6054C29.7728 16.6675 32.1342 16.8241 32.6509 16.9864ZM51.1057 16.9443C51.1511 17.1633 51.1476 17.5682 51.0979 17.8441C51.0103 18.3298 50.9893 18.3334 50.4151 17.9579C49.9411 17.6476 49.1484 17.5548 46.4463 17.4924L43.0696 17.4148V19.4529V21.4912L44.6099 21.663C45.457 21.7572 46.6117 21.8517 47.1756 21.8726C47.9654 21.902 48.2192 22.0053 48.2803 22.3226C48.354 22.7044 48.1694 22.7289 45.7719 22.6563L43.1837 22.5778L43.12 25.7325L43.0563 28.8871L46.4396 28.8049C49.1965 28.7378 49.937 28.6478 50.4398 28.3194C51.0931 27.8924 51.1072 27.8985 51.1072 28.6096C51.1072 29.8192 51.4393 29.7477 45.8253 29.7477H40.5941L40.5165 24.0004C40.4519 19.2182 40.3743 18.1097 40.0544 17.3995L39.6698 16.546H45.3466C50.5692 16.546 51.0297 16.5778 51.1057 16.9443ZM58.7348 21.676L61.2403 26.8062L63.7251 21.676L66.2098 16.546H67.0767H67.9434V23.1468V29.7477H66.6883H65.4332L65.4328 24.9109L65.4325 20.074L63.1092 24.9109C61.3176 28.641 60.6892 29.7477 60.3621 29.7477C60.0372 29.7477 59.3679 28.5953 57.4941 24.8098L55.0501 19.8717L54.9885 24.8255C54.9319 29.3808 54.8951 29.7732 54.5321 29.7035C54.1747 29.6348 54.1336 29.1862 54.0983 24.9646C54.0499 19.2111 53.9388 17.8229 53.4684 17.1068L53.0999 16.546H54.6647H56.2294L58.7348 21.676ZM73.6484 23.1468V29.7477H72.4139H71.1791L71.1017 24.1142C71.0301 18.9136 70.9869 18.4063 70.5392 17.5133L70.0545 16.546H71.8513H73.6484V23.1468ZM87.1122 17.4617V18.3774L86.4954 17.9743C85.9929 17.6458 85.2526 17.5559 82.5019 17.489L79.1252 17.4068V19.5371V21.6673L80.2092 21.6874C82.8066 21.7352 84.2581 21.9705 84.3378 22.3566C84.4074 22.6948 84.1431 22.7264 81.8276 22.6563L79.2393 22.5778L79.1757 25.7289L79.112 28.8803L82.3705 28.8017C84.8496 28.7419 85.8063 28.6321 86.3706 28.3424L87.1122 27.9616V28.8548V29.7477H81.8837H76.6554L76.5781 24.0004C76.5119 19.0743 76.4439 18.1425 76.1016 17.4783C75.882 17.0522 75.7022 16.6682 75.7022 16.6247C75.7022 16.5815 78.2695 16.546 81.4072 16.546H87.1122V17.4617ZM99.7418 16.9823C100.224 17.1362 100.987 17.5982 101.436 18.0091C102.163 18.673 102.265 18.9064 102.351 20.1052C102.514 22.3413 101.803 23.4625 99.7856 24.1543L98.9992 24.424L100.073 25.2823C100.663 25.7544 101.609 26.7382 102.173 27.4686C102.738 28.1988 103.508 28.9472 103.885 29.132L104.57 29.4677L103.7 29.6357C102.478 29.8717 100.964 29.6587 100.268 29.1527C99.9435 28.9167 99.3228 28.057 98.8885 27.2423C97.8032 25.2056 97.1809 24.6643 95.9249 24.6643C93.5975 24.6643 92.8172 25.5099 92.8172 28.0326V29.7477H91.5621H90.307L90.3025 25.2523C90.2977 20.4136 90.0474 17.9035 89.4839 17.046L89.1295 16.5064L93.997 16.6045C96.9404 16.6639 99.2114 16.8132 99.7418 16.9823ZM118.147 17.4617V18.3774L117.531 17.9738C117.027 17.6442 116.295 17.5559 113.537 17.4924L110.16 17.4148V19.5409V21.6673L111.244 21.6874C113.842 21.7352 115.293 21.9705 115.373 22.3566C115.443 22.6948 115.178 22.7264 112.863 22.6563L110.275 22.5778L110.211 25.7289L110.147 28.8803L113.406 28.8017C115.885 28.7419 116.841 28.6321 117.406 28.3424L118.147 27.9616V28.8548V29.7477H112.919H107.691L107.613 24.0004C107.547 19.0743 107.479 18.1425 107.137 17.4783C106.917 17.0522 106.737 16.6682 106.737 16.6247C106.737 16.5815 109.305 16.546 112.442 16.546H118.147V17.4617ZM129.505 16.8983C129.97 17.092 130.574 17.461 130.849 17.718L131.348 18.1855L132.38 17.4767C135.006 15.6753 137.997 16.838 138 19.6609C138.001 20.8677 137.676 21.7274 136.918 22.5193L136.321 23.1439L136.792 23.6574C138.55 25.5744 138.345 28.4048 136.376 29.4204C135.218 30.0179 133.431 29.7748 132.296 28.8648L131.383 28.133L130.47 28.8648C128.75 30.2434 126.231 29.9796 125.213 28.3139C124.485 27.124 124.612 25.6964 125.572 24.2735C126.371 23.0888 126.374 23.0744 125.941 22.6006C124.209 20.7077 124.471 17.9312 126.477 16.9202C127.372 16.469 128.456 16.4613 129.505 16.8983ZM126.435 17.453C125.858 17.6907 125.45 18.353 125.45 19.0518C125.45 19.3229 125.937 20.0481 126.549 20.6881C127.798 21.9935 127.891 21.9828 129.312 20.3654L130.093 19.4761L129.084 18.4793C128.008 17.418 127.242 17.1209 126.435 17.453ZM135.145 17.4851C134.766 17.5864 134.052 18.0828 133.557 18.5884L132.658 19.5073L133.78 20.6442C134.398 21.2695 135.022 21.7811 135.168 21.7811C135.313 21.7811 135.857 21.3225 136.375 20.7619C137.089 19.9884 137.316 19.558 137.316 18.9762C137.316 17.796 136.381 17.1539 135.145 17.4851ZM11.3497 19.8708C11.3497 22.0825 11.3833 22.271 11.7491 22.1166C11.9686 22.024 13.0213 21.8733 14.0881 21.7818C15.155 21.6903 16.3001 21.5053 16.633 21.371C17.9347 20.8452 17.9778 18.3007 16.6951 17.7175C16.379 17.5739 15.047 17.4564 13.7351 17.4564H11.3497V19.8708ZM25.6504 17.6083C25.4708 17.7872 25.4416 24.7401 25.6202 24.7401C25.6876 24.7401 25.9931 24.5763 26.2996 24.376C26.6319 24.1588 27.6642 23.9451 28.8586 23.8461C31.0496 23.6647 31.6126 23.4539 32.3264 22.5484C32.6798 22.1003 32.7997 21.6223 32.7971 20.6692C32.7903 18.0867 31.893 17.4574 28.2176 17.4569C26.8893 17.4567 25.7339 17.5247 25.6504 17.6083ZM92.8172 21.1035V24.7506L93.3823 24.3814C93.723 24.1588 94.743 23.9455 95.9495 23.8447C99.1115 23.5804 99.8949 22.9301 99.888 20.5755C99.881 18.0867 98.949 17.4574 95.2704 17.4569L92.8172 17.4564V21.1035ZM130.128 22.0088L129.004 23.1468L130.128 24.2849C130.746 24.9109 131.362 25.423 131.497 25.423C131.632 25.423 132.227 24.9329 132.818 24.3341L133.893 23.2449L132.688 22.0579C132.025 21.4049 131.431 20.8707 131.367 20.8707C131.304 20.8707 130.746 21.3828 130.128 22.0088ZM12.3538 22.789C11.9645 22.9579 11.5795 23.2695 11.4981 23.4817C11.4164 23.6936 11.3497 24.9853 11.3497 26.3521V28.8372L13.8029 28.8368C17.4908 28.8363 18.4137 28.2088 18.4205 25.6961C18.4251 24.0967 17.9778 23.2914 16.8307 22.8336C15.7118 22.3871 13.3342 22.3634 12.3538 22.789ZM126.508 25.6408C125.289 26.9403 125.164 27.6623 126.01 28.506C126.619 29.1131 127.253 29.2085 128.032 28.8099C128.712 28.4621 130.014 27.2116 130.014 26.9061C130.014 26.6546 127.942 24.5125 127.698 24.5125C127.626 24.5125 127.09 25.0203 126.508 25.6408ZM133.791 25.639L132.678 26.7655L133.457 27.6589C134.765 29.1591 135.945 29.4675 136.82 28.5381C137.61 27.6998 137.458 26.9209 136.258 25.6408C135.676 25.0203 135.133 24.5125 135.052 24.5125C134.97 24.5125 134.402 25.0194 133.791 25.639ZM51.8704 37.6123C52.1784 38.3074 52.5116 38.8264 52.6104 38.7654C52.7092 38.7044 53.0337 38.1358 53.3315 37.5016C53.6293 36.8675 53.9944 36.3485 54.143 36.3485C54.2913 36.3485 54.727 36.9324 55.1108 37.6462L55.8089 38.9436L56.4469 37.6462C56.8691 36.7874 57.2232 36.3485 57.4937 36.3485C57.7187 36.3485 57.9026 36.3857 57.9026 36.4309C57.9026 36.7136 56.0222 40.4456 55.8798 40.4456C55.7833 40.4456 55.41 39.8311 55.0501 39.0799C54.6902 38.3288 54.3176 37.7142 54.2222 37.7142C54.1268 37.7142 53.7722 38.3288 53.4344 39.0799C53.0965 39.8311 52.6894 40.4456 52.5301 40.4456C52.2955 40.4456 51.5219 38.871 50.6762 36.6729C50.599 36.4724 50.696 36.3485 50.9306 36.3485C51.1714 36.3485 51.5146 36.8102 51.8704 37.6123ZM62.0102 36.69C62.0102 36.9479 61.7313 37.0314 60.8692 37.0314C59.8042 37.0314 59.7282 37.0694 59.7282 37.6004C59.7282 38.1126 59.8195 38.1695 60.641 38.1695C61.3003 38.1695 61.5538 38.2644 61.5538 38.5109C61.5538 38.7574 61.3003 38.8523 60.641 38.8523C59.8195 38.8523 59.7282 38.9092 59.7282 39.4214C59.7282 39.9515 59.8051 39.9904 60.8557 39.9904C62.0675 39.9904 62.6006 40.3464 61.7192 40.567C61.4233 40.6409 60.6745 40.6696 60.0554 40.6305L58.9295 40.5594L58.8638 38.454L58.7983 36.3485H60.4041C61.6795 36.3485 62.0102 36.4189 62.0102 36.69ZM64.2206 38.1126L64.1781 39.8766L65.2767 39.9465C66.9053 40.0503 66.5457 40.5594 64.8438 40.5594H63.4935L63.4278 38.454C63.3666 36.4874 63.392 36.3485 63.8128 36.3485C64.226 36.3485 64.2596 36.4938 64.2206 38.1126ZM68.2191 38.1126L68.2857 39.8766L69.3697 39.946C70.1476 39.9959 70.4536 40.1113 70.4536 40.3553C70.4536 40.6275 70.1704 40.6814 69.0274 40.6273L67.6011 40.5594L67.5354 38.454C67.4811 36.708 67.5281 36.3485 67.8111 36.3485C68.079 36.3485 68.1668 36.7282 68.2191 38.1126ZM73.1523 37.6004C73.7833 38.289 74.3584 38.8523 74.4302 38.8523C74.5023 38.8523 74.5612 38.289 74.5612 37.6004C74.5612 36.6394 74.6406 36.3485 74.9035 36.3485C75.1842 36.3485 75.2458 36.7462 75.2458 38.5612V40.7739L73.7625 39.3076L72.2792 37.8412V39.2572C72.2792 40.3641 72.2046 40.6733 71.9369 40.6733C71.6567 40.6733 71.5946 40.2813 71.5946 38.5109C71.5946 37.3216 71.687 36.3485 71.8 36.3485C71.9127 36.3485 72.5213 36.9119 73.1523 37.6004ZM80.038 36.69C80.038 36.951 79.75 37.0314 78.8146 37.0314C77.6326 37.0314 77.5949 37.0507 77.7001 37.6004C77.7946 38.0935 77.9301 38.1695 78.7145 38.1695C79.8819 38.1695 79.7804 38.7092 78.5942 38.8091C77.8772 38.8696 77.756 38.96 77.756 39.435C77.756 39.951 77.8384 39.9904 78.916 39.9904C79.7427 39.9904 80.0488 40.0721 79.981 40.2749C79.918 40.4632 79.3902 40.5594 78.4217 40.5594H76.9573L76.8916 38.454L76.8261 36.3485H78.432C79.7074 36.3485 80.038 36.4189 80.038 36.69ZM83.5564 36.4867C84.2992 36.771 83.9277 37.1848 82.9476 37.1648C81.6334 37.1381 81.6482 37.6938 82.9745 38.1825C84.1662 38.6215 84.5265 39.1339 84.1787 39.8953C83.888 40.5314 83.0797 40.7807 81.9761 40.5742C81.3826 40.4632 81.179 40.3093 81.179 39.9722C81.179 39.5862 81.2482 39.5561 81.6466 39.7687C82.3027 40.119 83.3275 39.9583 83.4161 39.4917C83.4692 39.2126 83.2299 39.0292 82.5466 38.825C81.7032 38.5728 80.9508 37.918 80.9508 37.4359C80.9508 37.3387 81.1562 37.0542 81.4072 36.8038C81.8545 36.3577 82.8399 36.2124 83.5564 36.4867ZM87.9757 36.824C88.0303 37.1115 87.8432 37.1818 87.0648 37.1655C85.7795 37.1388 85.743 37.6847 86.9984 38.1631C87.5004 38.3543 88.0394 38.5938 88.1964 38.695C88.6553 38.9914 88.5264 39.933 87.9741 40.3188C87.1093 40.9232 85.2866 40.6969 85.2866 39.9852C85.2866 39.6267 85.3802 39.6064 86.0653 39.816C86.4936 39.9472 87.007 39.992 87.2063 39.9157C87.8454 39.6711 87.5944 39.1234 86.7129 38.8403C86.2423 38.6891 85.7289 38.4638 85.5719 38.3395C85.1477 38.0038 85.2221 36.865 85.686 36.5885C86.2962 36.2252 87.8931 36.3895 87.9757 36.824ZM94.7382 36.4867C94.9368 36.5627 95.0993 36.7687 95.0993 36.9447C95.0993 37.1901 94.8877 37.2306 94.1901 37.1195C92.9172 36.9165 92.1326 37.4468 92.1326 38.5102C92.1326 39.1546 92.257 39.3599 92.8236 39.6522C93.2942 39.895 93.7768 39.9597 94.3362 39.855C94.9808 39.7343 95.1353 39.7692 95.0529 40.0166C94.8704 40.5644 93.8394 40.778 92.8307 40.4766C90.9227 39.9064 90.6624 37.2907 92.4423 36.5743C93.0251 36.3397 94.2337 36.2937 94.7382 36.4867ZM99.4351 36.69C99.4351 36.9479 99.1562 37.0314 98.2941 37.0314C97.229 37.0314 97.1531 37.0694 97.1531 37.6004C97.1531 38.1146 97.243 38.1695 98.0848 38.1695C99.2739 38.1695 99.195 38.7078 97.9912 38.8091C97.2797 38.8692 97.1531 38.9618 97.1531 39.4232C97.1531 39.9182 97.2596 39.9726 98.3511 40.0355C100.085 40.1349 99.7148 40.5594 97.8947 40.5594H96.3544L96.3073 38.454L96.2603 36.3485H97.8477C99.1065 36.3485 99.4351 36.4191 99.4351 36.69ZM102.362 37.6004C102.993 38.289 103.568 38.8523 103.64 38.8523C103.712 38.8523 103.771 38.289 103.771 37.6004C103.771 36.6394 103.85 36.3485 104.113 36.3485C104.31 36.3485 104.464 36.5659 104.475 36.8607C104.486 37.1422 104.52 38.0095 104.551 38.7872C104.581 39.5652 104.539 40.3109 104.456 40.4443C104.369 40.5856 103.804 40.157 103.101 39.4152C102.437 38.716 101.839 38.2 101.77 38.2685C101.701 38.3372 101.635 38.8808 101.624 39.4764C101.608 40.2781 101.514 40.5594 101.261 40.5594C100.986 40.5594 100.905 40.1447 100.853 38.454C100.815 37.2497 100.879 36.3485 101.001 36.3485C101.119 36.3485 101.731 36.9119 102.362 37.6004ZM109.248 36.69C109.248 36.9285 109.007 37.0314 108.449 37.0314H107.65V38.8712C107.65 40.2417 107.577 40.6871 107.365 40.617C107.178 40.5553 107.057 39.9214 107.013 38.7772L106.947 37.0314H106.271C105.824 37.0314 105.596 36.9165 105.596 36.69C105.596 36.415 105.952 36.3485 107.422 36.3485C108.893 36.3485 109.248 36.415 109.248 36.69ZM113.355 36.69C113.355 36.9479 113.076 37.0314 112.214 37.0314C111.149 37.0314 111.073 37.0694 111.073 37.6004C111.073 38.1146 111.163 38.1695 112.005 38.1695C113.194 38.1695 113.115 38.7078 111.911 38.8091C111.194 38.8696 111.073 38.96 111.073 39.435C111.073 39.951 111.156 39.9904 112.233 39.9904C113.06 39.9904 113.366 40.0721 113.298 40.2749C113.235 40.4632 112.707 40.5594 111.739 40.5594H110.275L110.209 38.454L110.143 36.3485H111.749C113.025 36.3485 113.355 36.4189 113.355 36.69ZM117.64 36.7029C118.245 37.1254 118.295 37.8572 117.76 38.4474C117.394 38.8505 117.396 38.9204 117.796 39.6617C118.03 40.0944 118.168 40.5014 118.103 40.5663C117.843 40.8258 117.289 40.3821 116.926 39.6237C116.632 39.0073 116.425 38.8384 116.033 38.894C115.647 38.9486 115.495 39.1555 115.409 39.7448C115.346 40.173 115.167 40.5656 115.01 40.6173C114.795 40.6881 114.724 40.1734 114.724 38.5298V36.3485H115.929C116.65 36.3485 117.337 36.4908 117.64 36.7029ZM115.451 37.6573C115.517 38.2252 115.597 38.276 116.322 38.2043C117.779 38.0602 117.641 37.0314 116.165 37.0314C115.442 37.0314 115.385 37.0817 115.451 37.6573Z" fill="white"/>
</svg>