<svg width="24" height="23" viewBox="0 0 24 23" fill="none" xmlns="http://www.w3.org/2000/svg">
<path d="M21.2207 12.3595L11.1424 2.21053C8.55412 -0.377748 4.63898 -0.649923 2.3569 1.63216C0.0748132 3.88022 0.315588 7.82938 2.90125 10.4177L12.9796 20.5326C15.5679 23.1209 19.483 23.3931 21.7651 21.111C24.0132 18.8629 23.775 14.9478 21.2207 12.3595ZM21.3228 20.7027C20.1294 21.8935 18.1195 21.7574 16.8293 20.4646L3.00331 6.57057C1.71048 5.27774 1.60842 3.23381 2.79918 2.07445C3.98995 0.88368 5.99986 1.01977 7.2927 2.3126L21.1187 16.2406C22.4115 17.5335 22.5136 19.5434 21.3228 20.7027Z" fill="#758C78"/>
<path d="M11.108 20.533L21.2203 10.4521C23.8086 7.86379 24.0808 3.94866 21.7987 1.66657C19.5506 -0.615511 15.6015 -0.377358 13.0132 2.21092L2.89821 12.2919C0.312547 14.8802 0.0377569 18.7953 2.31984 21.0774C4.56529 23.3595 8.51707 23.1213 11.1053 20.533H11.108ZM2.73072 20.6691C1.53996 19.4784 1.67604 17.4684 2.96887 16.173L16.8969 2.34701C18.1898 1.05418 20.2337 0.952114 21.3904 2.14288C22.5812 3.33365 22.4451 5.34356 21.1523 6.63901L7.22423 20.465C5.9314 21.7578 3.92149 21.8259 2.73072 20.6691Z" fill="#758C78"/>
</svg>
